HIERARCHY
ROOT Hips
{
	OFFSET -3.958830 18.904000 13.208200
	CHANNELS 6 Xposition Yposition Zposition Zrotation Yrotation Xrotation 
	JOINT LHipJoint
	{
		OFFSET 0.000000 0.000000 0.000000
		CHANNELS 3 Zrotation Yrotation Xrotation
		JOINT LeftUpLeg
		{
			OFFSET 1.800000 -1.400000 0.085000
			CHANNELS 3 Zrotation Yrotation Xrotation
			JOINT LeftLeg
			{
				OFFSET 2.215000 -6.000000 0.000000
				CHANNELS 3 Zrotation Yrotation Xrotation
				JOINT LeftFoot
				{
					OFFSET 2.500000 -6.900000 0.000000
					CHANNELS 3 Zrotation Yrotation Xrotation
					JOINT LeftToeBase
					{
						OFFSET 0.200000 -0.500000 1.950000
						CHANNELS 3 Zrotation Yrotation Xrotation
						End Site
						{
							OFFSET 0.000000 0.000000 0.000000
						}
					}
				}
			}
		}
	}
	JOINT RHipJoint
	{
		OFFSET 0.000000 0.000000 0.000000
		CHANNELS 3 Zrotation Yrotation Xrotation
		JOINT RightUpLeg
		{
			OFFSET -1.800000 -1.400000 0.085000
			CHANNELS 3 Zrotation Yrotation Xrotation
			JOINT RightLeg
			{
				OFFSET -2.215000 -6.000000 0.000000
				CHANNELS 3 Zrotation Yrotation Xrotation
				JOINT RightFoot
				{
					OFFSET -2.500000 -6.900000 0.000000
					CHANNELS 3 Zrotation Yrotation Xrotation
					JOINT RightToeBase
					{
						OFFSET -0.200000 -0.500000 1.950000
						CHANNELS 3 Zrotation Yrotation Xrotation
						End Site
						{
							OFFSET 0.000000 0.000000 0.000000
						}
					}
				}
			}
		}
	}
	JOINT LowerBack
	{
		OFFSET 0.000000 0.000000 0.000000
		CHANNELS 3 Zrotation Yrotation Xrotation
		JOINT Spine
		{
			OFFSET -0.087000 1.940000 -0.288900
			CHANNELS 3 Zrotation Yrotation Xrotation
			JOINT Spine1
			{
				OFFSET 0.000000 1.950000 0.060000
				CHANNELS 3 Zrotation Yrotation Xrotation
				JOINT Neck
				{
					OFFSET 0.000000 0.000000 0.000000
					CHANNELS 3 Zrotation Yrotation Xrotation
					JOINT Neck1
					{
						OFFSET 0.000000 1.600000 0.340000
						CHANNELS 3 Zrotation Yrotation Xrotation
						JOINT Head
						{
							OFFSET 0.000000 1.667000 -0.240000
							CHANNELS 3 Zrotation Yrotation Xrotation
							End Site
							{
								OFFSET 0.000000 0.000000 0.000000
							}
						}
					}
				}
				JOINT LeftShoulder
				{
					OFFSET 0.000000 0.000000 0.000000
					CHANNELS 3 Zrotation Yrotation Xrotation
					JOINT LeftArm
					{
						OFFSET 2.700000 1.550000 -0.730000
						CHANNELS 3 Zrotation Yrotation Xrotation
						JOINT LeftForeArm
						{
							OFFSET 5.450000 0.000000 0.000000
							CHANNELS 3 Zrotation Yrotation Xrotation
							JOINT LeftHand
							{
								OFFSET 3.450000 0.000000 0.000000
								CHANNELS 3 Zrotation Yrotation Xrotation
								JOINT LeftHandIndex1
								{
									OFFSET 0.750000 0.000000 0.000000
									CHANNELS 3 Zrotation Yrotation Xrotation
									End Site
									{
										OFFSET 0.000000 0.000000 0.000000
									}
								}
							}
						}
					}
				}
				JOINT RightShoulder
				{
					OFFSET 0.000000 0.000000 0.000000
					CHANNELS 3 Zrotation Yrotation Xrotation
					JOINT RightArm
					{
						OFFSET -2.700000 1.550000 -0.730000
						CHANNELS 3 Zrotation Yrotation Xrotation
						JOINT RightForeArm
						{
							OFFSET -5.450000 0.000000 0.000000
							CHANNELS 3 Zrotation Yrotation Xrotation
							JOINT RightHand
							{
								OFFSET -3.450000 0.000000 0.000000
								CHANNELS 3 Zrotation Yrotation Xrotation
								JOINT RightHandIndex1
								{
									OFFSET -0.750000 0.000000 0.000000
									CHANNELS 3 Zrotation Yrotation Xrotation
									End Site
									{
										OFFSET 0.000000 0.000000 0.000000
									}
								}
							}
						}
					}
				}
			}
		}
	}
}
MOTION
Frames: 8
Frame Time: 0.016667
1.155110 19.858480 -0.965720 2.457962 -40.987629 -21.299578 -14.886750 13.039814 2.417834 -41.017624 6.983429 -50.348781 51.507859 -6.258227 48.937115 1.102798 11.668713 0.470244 0.704230 0.183480 0.525130 18.268733 -10.876071 4.513807 -15.916978 24.787644 9.739639 36.332175 -12.078654 26.749892 -1.728396 -8.677791 1.640922 0.007440 -0.097710 0.097120 -5.128725 1.810905 -7.733315 30.199251 8.984273 47.732724 -18.158301 24.336002 16.715672 10.304917 -9.914221 -23.188373 -34.512933 18.760895 64.037959 6.540390 -6.721290 -21.782440 -3.170047 -7.349455 6.695868 -39.448362 17.491907 -11.275490 -33.186207 16.124541 -10.789423 -3.254893 2.107499 1.228460 -0.406320 0.304610 0.167580 -18.728724 30.944017 6.912543 -2.308854 4.904997 -29.481715 -72.910423 56.327394 -33.816498 4.201135 -1.823946 -0.185700 0.462320 0.020280 -0.347630 
1.282120 19.874830 -1.054890 7.621349 -36.587572 -20.757509 -15.067435 12.362115 3.149352 -57.069478 1.574429 -57.919713 62.156605 -9.658274 41.657974 1.290264 12.431064 0.322895 0.640280 0.101540 0.455140 18.249897 -10.183728 4.321177 -16.990711 25.072753 9.195301 37.462505 -10.453095 23.033601 -1.618385 -8.431532 1.711362 0.018820 0.018060 0.083280 -4.477762 1.271833 -8.164820 21.534888 13.207959 46.153511 -15.543442 25.244482 17.856063 9.815949 -11.294552 -21.442604 -34.198111 16.566664 60.180125 7.712090 -7.951310 -23.247830 -2.867693 -7.044053 6.403243 -42.136680 15.176237 -11.733322 -36.338485 13.364134 -10.947591 -3.258121 2.133236 1.220150 -0.356270 0.230930 0.185270 -18.465534 32.799568 4.493698 -8.486729 8.404424 -27.201991 -63.275879 49.976107 -26.264753 4.109378 -1.737463 -0.273300 0.546780 0.078340 -0.340890 
1.389360 19.864590 -1.123690 12.341710 -32.965300 -19.173476 -15.502954 12.197880 3.492285 -73.030851 -4.301168 -62.651084 72.031207 -10.508549 31.539386 1.255068 12.355014 0.329980 0.560810 -0.010100 0.369790 18.010814 -9.258778 4.025769 -18.292834 25.361677 6.968751 37.988019 -8.946965 20.904701 -1.448023 -8.178376 1.757065 -0.000100 0.103700 0.116050 -3.122604 -0.389617 -8.317904 9.975680 18.260440 41.955504 -10.969361 26.448050 19.850237 9.772358 -12.742014 -20.407130 -34.750137 16.045655 56.223888 9.154360 -8.634410 -23.983620 0.370495 -4.770598 6.578587 -51.160443 15.410327 -14.309927 -32.572663 3.024425 -7.157686 -3.260884 2.218686 1.214250 -0.299740 0.147160 0.142150 -21.329897 34.483918 2.053403 -11.854566 11.953525 -27.029280 -57.975559 46.161396 -22.831385 4.038207 -1.659396 -0.324750 0.527510 0.174220 -0.341250 
1.483370 19.836250 -1.151330 15.455276 -27.669521 -14.796625 -15.892446 11.864959 3.838091 -89.995879 -11.394107 -62.647958 81.333146 -9.602884 19.452404 1.195364 11.560563 0.596436 0.566410 0.029280 0.331790 17.822103 -8.632451 3.689213 -19.254401 23.423049 3.173047 36.702503 -7.105115 17.760760 -1.260626 -7.542160 1.955881 0.029250 0.123420 0.092800 -2.141590 -1.280442 -8.213484 0.433138 21.194887 34.478611 -8.622882 26.029049 21.789387 10.155011 -13.253807 -19.597344 -33.368755 15.513640 55.678163 9.829120 -9.113180 -24.097000 0.913256 -4.884587 7.649203 -54.218733 16.594940 -16.623508 -31.574563 -6.745150 -4.956132 -3.147201 2.397681 1.154830 -0.291950 0.117560 0.164610 -21.462562 35.677506 0.379088 -15.401924 15.722159 -25.958160 -53.795155 44.828030 -21.329835 3.943049 -1.694657 -0.314420 0.531580 0.161390 -0.310100 
1.645340 19.750500 -1.150350 16.645934 -23.866803 -8.926652 -16.135506 11.543570 3.968350 -107.146882 -16.920257 -58.935240 86.929654 -7.305788 7.315946 1.044941 10.300446 1.051265 0.589810 0.083370 0.314040 17.742342 -8.445291 3.457756 -19.536412 21.338889 -2.997264 34.786626 -5.742121 16.701806 -1.095924 -6.789923 2.224908 0.050820 0.158810 0.044280 -1.685535 -1.217727 -7.893534 -4.381391 22.487884 26.510701 -6.727625 25.828648 23.394441 10.540812 -13.431538 -18.880496 -31.981387 14.502133 57.435927 10.961460 -10.306820 -25.061990 0.657796 -5.073305 8.377507 -54.434588 17.473061 -17.799292 -33.590963 -13.371084 -3.577143 -3.021328 2.500225 1.120270 -0.305910 0.109380 0.226480 -20.604519 35.817084 -0.470282 -18.690628 19.771032 -24.913436 -50.697273 41.454532 -19.111862 3.597536 -1.539098 -0.313000 0.601780 0.119400 -0.269200 
1.838440 19.698200 -1.162420 15.008290 -16.475463 -4.303494 -15.955849 11.015354 4.329652 -120.242874 -16.312728 -51.492283 89.432113 -6.172220 -1.666007 0.868998 9.401246 1.374044 0.560560 0.055140 0.194810 17.955820 -8.840978 3.375041 -16.277249 17.398859 -5.743946 31.430520 -4.720542 14.152150 -0.891481 -6.031728 2.532473 0.064490 0.261940 0.025790 -2.243806 -0.092970 -8.158867 1.052059 18.933627 26.615988 -9.730195 22.767960 25.085259 10.914227 -15.095434 -17.914048 -34.202972 13.765584 54.063485 13.676270 -13.333820 -26.499600 0.420203 -5.703727 9.292859 -53.537711 17.546839 -18.986492 -37.076329 -22.352920 -1.307704 -2.910840 2.717922 1.072270 -0.279740 0.023450 0.271800 -20.543041 35.327327 -1.898548 -21.733069 23.127611 -25.148528 -47.105141 39.451158 -17.369070 3.374604 -1.540225 -0.339280 0.644190 0.153810 -0.209690 
2.045640 19.651110 -1.188630 12.798424 -9.785793 -2.327253 -15.518419 10.468259 4.779555 -127.851955 -13.893084 -46.767217 91.307044 -7.298404 -5.907563 0.739294 8.999581 1.531096 0.529570 0.025770 0.130210 18.379593 -9.604063 3.163469 -11.197134 12.463227 -7.180986 25.762742 -4.517131 12.901771 -0.694213 -5.161895 2.868368 0.087980 0.322680 -0.020560 -3.424648 1.473213 -8.526281 9.938742 14.649592 29.395438 -14.564383 19.002189 26.641431 11.896368 -16.473071 -16.967913 -35.517884 12.837863 50.780905 15.542480 -15.388500 -29.338790 -0.108247 -6.945870 10.270986 -53.446082 17.232969 -20.687355 -40.551884 -32.277755 1.703770 -2.789985 2.880254 1.072320 -0.287290 -0.027330 0.284220 -21.420640 34.648978 -3.785420 -22.958748 24.770038 -26.238712 -45.146282 39.304271 -16.923788 3.360731 -1.558014 -0.397060 0.724210 0.191030 -0.187370 
2.264080 19.553740 -1.265670 12.628638 -2.865735 -0.401169 -15.421389 10.181588 5.206140 -133.310983 -11.607947 -42.569767 92.993150 -8.392823 -7.898158 0.756072 8.822891 1.614358 0.503110 -0.004410 0.096050 18.514713 -9.621347 3.008852 -9.719229 10.239586 -10.372176 23.400309 -4.114236 11.981105 -0.557404 -4.583077 3.070322 0.061050 0.333500 -0.008760 -3.690800 1.595164 -8.862418 12.786789 11.328380 30.755687 -17.357403 15.762926 26.910925 13.348340 -17.003397 -17.131675 -35.112458 10.790177 48.651784 15.223270 -16.979760 -29.707010 0.785077 -8.325979 11.027558 -53.771252 17.058244 -21.800215 -47.092726 -36.237425 3.872467 -2.741689 3.005630 1.034690 -0.279930 -0.045530 0.293590 -24.215729 35.893220 -4.998912 -21.588833 22.368923 -28.052433 -45.752268 42.144118 -18.612334 3.827999 -1.809320 -0.377500 0.700850 0.193050 -0.163460 
